<svg xmlns="http://www.w3.org/2000/svg" viewBox="0 0 41 33">
    <path d="M3.32,19.8a3.3,3.3,0,1,1,0-6.6,3.3,3.3,0,1,1,0,6.6Zm0,13.2a3.3,3.3,0,1,1,0-6.6,3.3,3.3,0,1,1,0,6.6Zm0-26.4A3.32,3.32,0,0,1,0,3.3a3.33,3.33,0,0,1,6.65,0A3.33,3.33,0,0,1,3.32,6.6Zm8.87-5.5H38.78A2.22,2.22,0,0,1,41,3.3a2.22,2.22,0,0,1-2.22,2.2H12.19A2.22,2.22,0,0,1,10,3.3,2.22,2.22,0,0,1,12.19,1.1Zm0,13.2H38.78a2.2,2.2,0,1,1,0,4.4H12.19a2.2,2.2,0,1,1,0-4.4ZM10,29.7a2.22,2.22,0,0,1,2.22-2.2H38.78a2.2,2.2,0,1,1,0,4.4H12.19A2.22,2.22,0,0,1,10,29.7Z"/>
</svg>