<?xml version="1.0" encoding="UTF-8"?>
<svg xmlns="http://www.w3.org/2000/svg" viewBox="0 0 42 53">
    <path d="m28.88,0H5.25C2.36,0,0,2.39,0,5.3v42.4c0,2.91,2.36,5.3,5.25,5.3h31.5c2.89,0,5.25-2.39,5.25-5.3V13.25L28.88,0ZM5.25,47.7V5.3h21v10.6h10.5v31.8H5.25Zm26.25-26.5v13.25c0,5.86-4.7,10.6-10.5,10.6s-10.5-4.74-10.5-10.6v-17.23c0-3.89,3.31-7,7.25-6.6,3.41.34,5.88,3.5,5.88,6.97v16.85h-5.25v-17.23c0-.74-.58-1.32-1.31-1.32s-1.31.58-1.31,1.32v17.23c0,2.91,2.36,5.3,5.25,5.3s5.25-2.39,5.25-5.3v-13.25h5.25Z"/>
</svg>