<?xml version="1.0" encoding="utf-8"?>
<!-- Generator: Adobe Illustrator 24.0.1, SVG Export Plug-In . SVG Version: 6.00 Build 0)  -->
<svg version="1.1" id="Layer_1" xmlns="http://www.w3.org/2000/svg" xmlns:xlink="http://www.w3.org/1999/xlink" x="0px" y="0px"
	 viewBox="0 0 600 600" style="enable-background:new 0 0 600 600;" xml:space="preserve">
<style type="text/css">
	.st0{clip-path:url(#SVGID_2_);}
	.st1{fill:#B1093F;}
	.st2{fill:#D5093F;}
	.st3{fill:#FF0F43;}
</style>
<g>
	<defs>
		<rect id="SVGID_1_" width="600" height="600"/>
	</defs>
	<clipPath id="SVGID_2_">
		<use xlink:href="#SVGID_1_"  style="overflow:visible;"/>
	</clipPath>
	<g class="st0">
		<path class="st1" d="M600,0H0v600h600V0z"/>
		<path class="st1" d="M599.9,0H0v599.9h599.9V0z"/>
		<path class="st1" d="M300,0H0v300h300V0z"/>
		<path class="st1" d="M600,0H300v300h300V0z"/>
		<path class="st1" d="M300,300H0v300h300V300z"/>
		<path class="st2" d="M150,300l50-50v50h100V150v-50V0L200,100l-50,50V300z"/>
		<path class="st3" d="M150,150l-50-50L0,0v100v50v150h100v-50l50,50V150z"/>
		<path class="st3" d="M600,225V0H300v225H600z"/>
		<path class="st3" d="M599.9,225H525l75,75L599.9,225z"/>
		<path class="st1" d="M600,300H300v300h300V300z"/>
		<path class="st2" d="M545.5,412.5h-27.3V600h27.3V412.5z"/>
		<path class="st2" d="M436.4,375h-27.3v225h27.3V375z"/>
		<path class="st2" d="M409.1,450h-27.3v150h27.3V450z"/>
		<path class="st2" d="M490.9,375h-27.3v225h27.3V375z"/>
		<path class="st2" d="M518.2,450h-27.3v150h27.3V450z"/>
		<path class="st2" d="M463.6,300h-27.3v300h27.3V300z"/>
		<path class="st2" d="M381.8,412.5h-27.3V600h27.3V412.5z"/>
		<path class="st2" d="M100,300H0v100h100V300z"/>
		<path class="st2" d="M100,400H0v100h100V400z"/>
		<path class="st2" d="M200,400H100v100h100V400z"/>
		<path class="st2" d="M100,500H0v100h100V500z"/>
		<path class="st2" d="M200,500H100v100h100V500z"/>
		<path class="st2" d="M300,500H200v100h100V500z"/>
	</g>
</g>
</svg>
