<svg width="404" height="1771" viewBox="0 0 404 1771" fill="none" xmlns="http://www.w3.org/2000/svg">
<mask id="path-1-inside-1_50_562" fill="white">
<path d="M0 0H404V1771H0V0Z"/>
</mask>
<path d="M0 0H404V1771H0V0Z" fill="#E9E9EE"/>
<path d="M10.736 40.128V38.08H11.568C13.744 38.08 14.992 36.704 14.992 31.936V17.6H28.88V40H26.736V19.52H17.136V32C17.136 38.208 14.96 40.128 11.92 40.128H10.736ZM44.809 40V28.992L36.233 38.912V40H34.185V25.44H36.233V36.512L44.809 26.56V25.44H46.857V40H44.809ZM62.3023 40H60.2543V34.24C59.0703 34.944 57.2783 35.264 55.9983 35.264C52.3503 35.264 50.4303 33.696 50.4303 30.208V25.44H52.5103V29.952C52.5103 32.416 53.8223 33.504 56.4143 33.504C57.5983 33.504 59.1983 33.28 60.2543 32.448V25.44H62.3023V40ZM69.483 40H67.435V25.44H69.483V31.808H78.091V25.44H80.139V40H78.091V33.568H69.483V40ZM85.2475 40V25.44H87.2955V30.912H91.5515C94.3675 30.912 96.2875 32.928 96.2875 35.456C96.2875 37.952 94.2395 40 91.4875 40H85.2475ZM100.64 40H98.5915V25.44H100.64V40ZM91.3915 32.608H87.2955V38.304H91.2955C93.0235 38.304 94.1435 37.024 94.1435 35.456C94.1435 33.888 93.0555 32.608 91.3915 32.608ZM118.388 31.808C118.388 32.32 118.356 32.672 118.324 33.184H106.548C106.548 36.48 108.532 38.56 111.668 38.56C113.876 38.56 115.476 37.536 116.116 35.904H118.196C117.62 38.56 114.996 40.384 111.668 40.384C107.284 40.384 104.468 37.344 104.468 32.704C104.468 28.064 107.316 25.056 111.54 25.056C115.636 25.056 118.388 27.872 118.388 31.808ZM106.548 31.552H116.372C116.34 28.672 114.548 26.72 111.54 26.72C108.628 26.72 106.74 28.704 106.548 31.552ZM142.469 25.44V38.048H143.653V43.84H141.605V40H130.597V43.84H128.453V38.048H129.861C130.821 37.632 131.397 36.352 131.397 33.856V25.44H142.469ZM132.325 38.24H140.421V27.168H133.445V33.76C133.445 35.808 132.997 37.248 132.325 38.24ZM153.826 40.384C149.218 40.384 146.53 37.056 146.53 32.736C146.53 28.416 149.346 25.056 153.858 25.056C156.546 25.056 158.626 26.464 159.554 28.608V25.44H161.57V40H159.554V36.864C158.626 38.944 156.418 40.384 153.826 40.384ZM154.05 38.528C157.602 38.528 159.65 35.84 159.65 32.736C159.65 29.568 157.602 26.912 154.05 26.912C150.69 26.912 148.578 29.408 148.578 32.736C148.578 36.032 150.69 38.528 154.05 38.528ZM168.733 40H166.685V25.44H168.733V31.808H177.341V25.44H179.389V40H177.341V33.568H168.733V40ZM186.546 40H184.498V25.44H186.546V31.808H195.154V25.44H197.202V40H195.154V33.568H186.546V40ZM202.31 40V25.44H204.358V30.912H208.614C211.43 30.912 213.35 32.928 213.35 35.456C213.35 37.952 211.302 40 208.55 40H202.31ZM217.702 40H215.654V25.44H217.702V40ZM208.454 32.608H204.358V38.304H208.358C210.086 38.304 211.206 37.024 211.206 35.456C211.206 33.888 210.118 32.608 208.454 32.608ZM235.45 31.808C235.45 32.32 235.418 32.672 235.386 33.184H223.61C223.61 36.48 225.594 38.56 228.73 38.56C230.938 38.56 232.538 37.536 233.178 35.904H235.258C234.682 38.56 232.058 40.384 228.73 40.384C224.346 40.384 221.53 37.344 221.53 32.704C221.53 28.064 224.378 25.056 228.602 25.056C232.698 25.056 235.45 27.872 235.45 31.808ZM223.61 31.552H233.434C233.402 28.672 231.61 26.72 228.602 26.72C225.69 26.72 223.802 28.704 223.61 31.552Z" fill="black"/>
<path d="M22.8 118.48C15.6 118.48 11.28 113.008 11.28 106.8C11.28 100.592 15.6 95.12 22.8 95.12C30 95.12 34.32 100.592 34.32 106.8C34.32 113.008 30 118.48 22.8 118.48ZM22.8 116.528C28.656 116.528 32.08 111.984 32.08 106.8C32.08 101.616 28.656 97.072 22.8 97.072C16.944 97.072 13.52 101.616 13.52 106.8C13.52 111.984 16.944 116.528 22.8 116.528ZM36.6497 103.44H48.2018V105.36H43.4338V118H41.3858V105.36H36.6497V103.44ZM53.7628 118H51.7788V103.44H54.9148L60.2908 115.184L65.6988 103.44H68.8348L68.8028 118H66.8507V105.424L60.9948 118H59.6188L53.7628 105.424V118ZM86.6063 109.808C86.6063 110.32 86.5743 110.672 86.5423 111.184H74.7663C74.7663 114.48 76.7503 116.56 79.8863 116.56C82.0943 116.56 83.6943 115.536 84.3343 113.904H86.4143C85.8383 116.56 83.2143 118.384 79.8863 118.384C75.5023 118.384 72.6863 115.344 72.6863 110.704C72.6863 106.064 75.5343 103.056 79.7583 103.056C83.8543 103.056 86.6063 105.872 86.6063 109.808ZM74.7663 109.552H84.5903C84.5583 106.672 82.7663 104.72 79.7583 104.72C76.8463 104.72 74.9583 106.704 74.7663 109.552ZM100.771 118H98.723V112.24C97.539 112.944 95.747 113.264 94.467 113.264C90.819 113.264 88.899 111.696 88.899 108.208V103.44H90.979V107.952C90.979 110.416 92.291 111.504 94.883 111.504C96.067 111.504 97.667 111.28 98.723 110.448V103.44H100.771V118ZM118.544 109.808C118.544 110.32 118.512 110.672 118.48 111.184H106.704C106.704 114.48 108.688 116.56 111.824 116.56C114.032 116.56 115.632 115.536 116.272 113.904H118.352C117.776 116.56 115.152 118.384 111.824 118.384C107.44 118.384 104.624 115.344 104.624 110.704C104.624 106.064 107.472 103.056 111.696 103.056C115.792 103.056 118.544 105.872 118.544 109.808ZM106.704 109.552H116.528C116.496 106.672 114.704 104.72 111.696 104.72C108.784 104.72 106.896 106.704 106.704 109.552ZM124.421 118H122.373V103.44H124.421V109.808H133.029V103.44H135.077V118H133.029V111.568H124.421V118ZM142.233 118H140.185V103.44H142.233V109.808H150.841V103.44H152.889V118H150.841V111.568H142.233V118ZM157.998 118V103.44H160.046V108.912H164.302C167.118 108.912 169.038 110.928 169.038 113.456C169.038 115.952 166.99 118 164.238 118H157.998ZM173.39 118H171.342V103.44H173.39V118ZM164.142 110.608H160.046V116.304H164.046C165.774 116.304 166.894 115.024 166.894 113.456C166.894 111.888 165.806 110.608 164.142 110.608ZM191.138 109.808C191.138 110.32 191.106 110.672 191.074 111.184H179.298C179.298 114.48 181.282 116.56 184.418 116.56C186.626 116.56 188.226 115.536 188.866 113.904H190.946C190.37 116.56 187.746 118.384 184.418 118.384C180.034 118.384 177.218 115.344 177.218 110.704C177.218 106.064 180.066 103.056 184.29 103.056C188.386 103.056 191.138 105.872 191.138 109.808ZM179.298 109.552H189.122C189.09 106.672 187.298 104.72 184.29 104.72C181.378 104.72 179.49 106.704 179.298 109.552ZM203.123 118V103.44H210.163C213.299 103.44 214.451 105.392 214.451 107.184C214.451 108.816 213.171 110.256 211.315 110.512C213.203 110.576 214.643 112.144 214.643 114.096C214.643 115.856 213.331 118 210.067 118H203.123ZM205.139 109.808H210.067C211.411 109.808 212.371 108.624 212.371 107.344C212.371 106.032 211.379 104.944 210.003 104.944H205.139V109.808ZM210.131 111.312H205.139V116.464H210.099C211.475 116.464 212.563 115.312 212.563 113.968C212.563 112.592 211.507 111.312 210.131 111.312ZM224.92 118.384C220.312 118.384 217.624 115.056 217.624 110.736C217.624 106.416 220.44 103.056 224.952 103.056C227.64 103.056 229.72 104.464 230.648 106.608V103.44H232.664V118H230.648V114.864C229.72 116.944 227.512 118.384 224.92 118.384ZM225.144 116.528C228.696 116.528 230.744 113.84 230.744 110.736C230.744 107.568 228.696 104.912 225.144 104.912C221.784 104.912 219.672 107.408 219.672 110.736C219.672 114.032 221.784 116.528 225.144 116.528ZM242.291 110.576H242.131L249.523 118H246.899L239.827 110.896V118H237.779V103.44H239.827V110H240.595C241.363 110 242.003 109.616 242.739 108.432L244.915 105.264C245.811 103.92 246.419 103.28 247.827 103.28H249.011V105.136H248.275C247.315 105.136 246.963 105.616 246.323 106.544L244.851 108.752C243.987 110.096 243.379 110.576 242.291 110.576ZM258.232 118.384C253.624 118.384 250.936 115.056 250.936 110.736C250.936 106.416 253.752 103.056 258.264 103.056C260.952 103.056 263.032 104.464 263.96 106.608V103.44H265.976V118H263.96V114.864C263.032 116.944 260.824 118.384 258.232 118.384ZM258.456 116.528C262.008 116.528 264.056 113.84 264.056 110.736C264.056 107.568 262.008 104.912 258.456 104.912C255.096 104.912 252.984 107.408 252.984 110.736C252.984 114.032 255.096 116.528 258.456 116.528ZM273.139 118H271.091V103.44H273.139V109.808H281.747V103.44H283.795V118H281.747V111.568H273.139V118ZM294.856 118.384C290.44 118.384 287.624 115.248 287.624 110.736C287.624 106.224 290.44 103.088 294.856 103.088C298.696 103.088 301.192 105.168 301.576 108.368H299.496C299.112 106.128 297.416 104.944 294.856 104.944C291.656 104.944 289.672 107.184 289.672 110.736C289.672 114.256 291.656 116.528 294.856 116.528C297.416 116.528 299.112 115.312 299.496 113.168H301.576C301.192 116.304 298.696 118.384 294.856 118.384ZM316.028 118V106.992L307.452 116.912V118H305.404V103.44H307.452V114.512L316.028 104.56V103.44H318.076V118H316.028ZM333.809 118V106.992L325.233 116.912V118H323.185V103.44H325.233V114.512L333.809 104.56V103.44H335.857V118H333.809Z" fill="black"/>
<path d="M22.8 196.48C15.6 196.48 11.28 191.008 11.28 184.8C11.28 178.592 15.6 173.12 22.8 173.12C30 173.12 34.32 178.592 34.32 184.8C34.32 191.008 30 196.48 22.8 196.48ZM22.8 194.528C28.656 194.528 32.08 189.984 32.08 184.8C32.08 179.616 28.656 175.072 22.8 175.072C16.944 175.072 13.52 179.616 13.52 184.8C13.52 189.984 16.944 194.528 22.8 194.528ZM36.6497 181.44H48.2018V183.36H43.4338V196H41.3858V183.36H36.6497V181.44ZM53.7628 196H51.7788V181.44H54.9148L60.2908 193.184L65.6988 181.44H68.8348L68.8028 196H66.8507V183.424L60.9948 196H59.6188L53.7628 183.424V196ZM86.6063 187.808C86.6063 188.32 86.5743 188.672 86.5423 189.184H74.7663C74.7663 192.48 76.7503 194.56 79.8863 194.56C82.0943 194.56 83.6943 193.536 84.3343 191.904H86.4143C85.8383 194.56 83.2143 196.384 79.8863 196.384C75.5023 196.384 72.6863 193.344 72.6863 188.704C72.6863 184.064 75.5343 181.056 79.7583 181.056C83.8543 181.056 86.6063 183.872 86.6063 187.808ZM74.7663 187.552H84.5903C84.5583 184.672 82.7663 182.72 79.7583 182.72C76.8463 182.72 74.9583 184.704 74.7663 187.552ZM100.771 196H98.723V190.24C97.539 190.944 95.747 191.264 94.467 191.264C90.819 191.264 88.899 189.696 88.899 186.208V181.44H90.979V185.952C90.979 188.416 92.291 189.504 94.883 189.504C96.067 189.504 97.667 189.28 98.723 188.448V181.44H100.771V196ZM118.544 187.808C118.544 188.32 118.512 188.672 118.48 189.184H106.704C106.704 192.48 108.688 194.56 111.824 194.56C114.032 194.56 115.632 193.536 116.272 191.904H118.352C117.776 194.56 115.152 196.384 111.824 196.384C107.44 196.384 104.624 193.344 104.624 188.704C104.624 184.064 107.472 181.056 111.696 181.056C115.792 181.056 118.544 183.872 118.544 187.808ZM106.704 187.552H116.528C116.496 184.672 114.704 182.72 111.696 182.72C108.784 182.72 106.896 184.704 106.704 187.552ZM124.421 196H122.373V181.44H124.421V187.808H133.029V181.44H135.077V196H133.029V189.568H124.421V196ZM142.233 196H140.185V181.44H142.233V187.808H150.841V181.44H152.889V196H150.841V189.568H142.233V196ZM157.998 196V181.44H160.046V186.912H164.302C167.118 186.912 169.038 188.928 169.038 191.456C169.038 193.952 166.99 196 164.238 196H157.998ZM173.39 196H171.342V181.44H173.39V196ZM164.142 188.608H160.046V194.304H164.046C165.774 194.304 166.894 193.024 166.894 191.456C166.894 189.888 165.806 188.608 164.142 188.608ZM191.138 187.808C191.138 188.32 191.106 188.672 191.074 189.184H179.298C179.298 192.48 181.282 194.56 184.418 194.56C186.626 194.56 188.226 193.536 188.866 191.904H190.946C190.37 194.56 187.746 196.384 184.418 196.384C180.034 196.384 177.218 193.344 177.218 188.704C177.218 184.064 180.066 181.056 184.29 181.056C188.386 181.056 191.138 183.872 191.138 187.808ZM179.298 187.552H189.122C189.09 184.672 187.298 182.72 184.29 182.72C181.378 182.72 179.49 184.704 179.298 187.552ZM14.544 233H12.56V218.44H15.696L21.072 230.184L26.48 218.44H29.616L29.584 233H27.632V220.424L21.776 233H20.4L14.544 220.424V233ZM47.3875 224.808C47.3875 225.32 47.3555 225.672 47.3235 226.184H35.5475C35.5475 229.48 37.5315 231.56 40.6675 231.56C42.8755 231.56 44.4755 230.536 45.1155 228.904H47.1955C46.6195 231.56 43.9955 233.384 40.6675 233.384C36.2835 233.384 33.4675 230.344 33.4675 225.704C33.4675 221.064 36.3155 218.056 40.5395 218.056C44.6355 218.056 47.3875 220.872 47.3875 224.808ZM35.5475 224.552H45.3715C45.3395 221.672 43.5475 219.72 40.5395 219.72C37.6275 219.72 35.7395 221.704 35.5475 224.552ZM59.1203 218.056C63.3123 218.056 66.2563 221.224 66.2563 225.736C66.2563 230.184 63.2163 233.384 58.9923 233.384C56.4323 233.384 54.2243 232.008 53.2643 229.864V239.88H51.2163V218.44H53.2643V221.608C54.2243 219.4 56.4643 218.056 59.1203 218.056ZM58.7683 231.528C61.9363 231.528 64.2083 229.096 64.2083 225.736C64.2083 222.344 61.9363 219.912 58.7683 219.912C55.4723 219.912 53.1683 222.344 53.1683 225.736C53.1683 229.096 55.5043 231.528 58.7683 231.528ZM76.2993 233.384C71.6913 233.384 68.8113 229.96 68.8113 225.704C68.8113 221.48 71.6913 218.056 76.2993 218.056C80.9393 218.056 83.8193 221.48 83.8193 225.704C83.8193 229.96 80.9393 233.384 76.2993 233.384ZM76.2993 231.496C79.7233 231.496 81.7713 228.936 81.7713 225.704C81.7713 222.472 79.7233 219.912 76.2993 219.912C72.9073 219.912 70.8593 222.472 70.8593 225.736C70.8593 228.936 72.9073 231.496 76.2993 231.496ZM100.486 218.44V233H98.4378V220.2H89.7018V233H87.6538V218.44H100.486ZM113.495 218.056C117.687 218.056 120.631 221.224 120.631 225.736C120.631 230.184 117.591 233.384 113.367 233.384C110.807 233.384 108.599 232.008 107.639 229.864V239.88H105.591V218.44H107.639V221.608C108.599 219.4 110.839 218.056 113.495 218.056ZM113.143 231.528C116.311 231.528 118.583 229.096 118.583 225.736C118.583 222.344 116.311 219.912 113.143 219.912C109.847 219.912 107.543 222.344 107.543 225.736C107.543 229.096 109.879 231.528 113.143 231.528ZM135.09 233V221.992L126.514 231.912V233H124.466V218.44H126.514V229.512L135.09 219.56V218.44H137.138V233H135.09ZM144.072 233H141.672L145.288 227.816C143.048 227.496 141.448 225.384 141.448 223.24C141.448 220.648 143.464 218.44 146.472 218.44H153.64V233H151.624V228.04H147.432L144.072 233ZM146.824 226.28H151.624V220.136H146.824C144.808 220.136 143.528 221.608 143.528 223.24C143.528 224.872 144.808 226.28 146.824 226.28ZM157.243 218.44H168.796V220.36H164.028V233H161.98V220.36H157.243V218.44ZM182.997 233V221.992L174.421 231.912V233H172.373V218.44H174.421V229.512L182.997 219.56V218.44H185.045V233H182.997ZM191.978 233H189.578L193.194 227.816C190.954 227.496 189.354 225.384 189.354 223.24C189.354 220.648 191.37 218.44 194.378 218.44H201.546V233H199.53V228.04H195.338L191.978 233ZM194.73 226.28H199.53V220.136H194.73C192.714 220.136 191.434 221.608 191.434 223.24C191.434 224.872 192.714 226.28 194.73 226.28Z" fill="black"/>
<path d="M27.824 312H25.488L24.176 307.968H14.256L12.976 312H10.64L18.256 289.6H20.208L27.824 312ZM19.216 292.512L14.896 306.016H23.568L19.216 292.512ZM35.5408 304.576H35.3808L42.7728 312H40.1488L33.0768 304.896V312H31.0288V297.44H33.0768V304H33.8448C34.6128 304 35.2528 303.616 35.9888 302.432L38.1648 299.264C39.0608 297.92 39.6688 297.28 41.0768 297.28H42.2608V299.136H41.5248C40.5648 299.136 40.2128 299.616 39.5728 300.544L38.1008 302.752C37.2368 304.096 36.6288 304.576 35.5408 304.576ZM44.681 297.44H56.233V299.36H51.465V312H49.417V299.36H44.681V297.44ZM70.434 312V300.992L61.858 310.912V312H59.81V297.44H61.858V308.512L70.434 298.56V297.44H72.482V312H70.434ZM77.5913 312V297.44H84.6313C87.7673 297.44 88.9193 299.392 88.9193 301.184C88.9193 302.816 87.6393 304.256 85.7833 304.512C87.6713 304.576 89.1113 306.144 89.1113 308.096C89.1113 309.856 87.7993 312 84.5353 312H77.5913ZM79.6073 303.808H84.5353C85.8793 303.808 86.8393 302.624 86.8393 301.344C86.8393 300.032 85.8473 298.944 84.4713 298.944H79.6073V303.808ZM84.5993 305.312H79.6073V310.464H84.5673C85.9433 310.464 87.0313 309.312 87.0313 307.968C87.0313 306.592 85.9753 305.312 84.5993 305.312ZM95.4205 312H93.3725V297.44H95.4205V303.808H104.029V297.44H106.077V312H104.029V305.568H95.4205V312ZM111.185 312V297.44H113.233V302.912H117.489C120.305 302.912 122.225 304.928 122.225 307.456C122.225 309.952 120.177 312 117.425 312H111.185ZM126.577 312H124.529V297.44H126.577V312ZM117.329 304.608H113.233V310.304H117.233C118.961 310.304 120.081 309.024 120.081 307.456C120.081 305.888 118.993 304.608 117.329 304.608ZM144.325 303.808C144.325 304.32 144.293 304.672 144.261 305.184H132.485C132.485 308.48 134.469 310.56 137.605 310.56C139.813 310.56 141.413 309.536 142.053 307.904H144.133C143.557 310.56 140.933 312.384 137.605 312.384C133.221 312.384 130.405 309.344 130.405 304.704C130.405 300.064 133.253 297.056 137.477 297.056C141.573 297.056 144.325 299.872 144.325 303.808ZM132.485 303.552H142.309C142.277 300.672 140.485 298.72 137.477 298.72C134.565 298.72 132.677 300.704 132.485 303.552ZM162.518 312.384C157.91 312.384 155.03 308.96 155.03 304.704C155.03 300.48 157.91 297.056 162.518 297.056C167.158 297.056 170.038 300.48 170.038 304.704C170.038 308.96 167.158 312.384 162.518 312.384ZM162.518 310.496C165.942 310.496 167.99 307.936 167.99 304.704C167.99 301.472 165.942 298.912 162.518 298.912C159.126 298.912 157.078 301.472 157.078 304.736C157.078 307.936 159.126 310.496 162.518 310.496ZM171.4 297.44H182.952V299.36H178.184V312H176.136V299.36H171.4V297.44ZM191.041 304.576H190.881L198.273 312H195.649L188.577 304.896V312H186.529V297.44H188.577V304H189.345C190.113 304 190.753 303.616 191.489 302.432L193.665 299.264C194.561 297.92 195.169 297.28 196.577 297.28H197.761V299.136H197.025C196.065 299.136 195.713 299.616 195.073 300.544L193.601 302.752C192.737 304.096 192.129 304.576 191.041 304.576ZM200.241 312.064V310.112H200.849C202.321 310.112 203.249 309.088 203.249 305.984V297.44H214.129V312H212.081V299.36H205.297V305.888C205.297 310.304 203.697 312.064 201.265 312.064H200.241ZM229.872 312V300.992L221.296 310.912V312H219.248V297.44H221.296V308.512L229.872 298.56V297.44H231.92V312H229.872ZM241.541 304.576H241.381L248.773 312H246.149L239.077 304.896V312H237.029V297.44H239.077V304H239.845C240.613 304 241.253 303.616 241.989 302.432L244.165 299.264C245.061 297.92 245.669 297.28 247.077 297.28H248.261V299.136H247.525C246.565 299.136 246.213 299.616 245.573 300.544L244.101 302.752C243.237 304.096 242.629 304.576 241.541 304.576ZM262.965 312V300.992L254.389 310.912V312H252.341V297.44H254.389V308.512L262.965 298.56V297.44H265.013V312H262.965Z" fill="black"/>
<path d="M26.416 390V372.24L14.864 388.56V390H12.72V367.6H14.864V385.328L26.416 369.04V367.6H28.56V390H26.416ZM39.7933 390.384C35.3773 390.384 32.5613 387.248 32.5613 382.736C32.5613 378.224 35.3773 375.088 39.7933 375.088C43.6333 375.088 46.1293 377.168 46.5133 380.368H44.4333C44.0493 378.128 42.3533 376.944 39.7933 376.944C36.5933 376.944 34.6093 379.184 34.6093 382.736C34.6093 386.256 36.5933 388.528 39.7933 388.528C42.3533 388.528 44.0493 387.312 44.4333 385.168H46.5133C46.1293 388.304 43.6333 390.384 39.7933 390.384ZM47.8685 375.44H59.4205V377.36H54.6525V390H52.6045V377.36H47.8685V375.44ZM68.2368 390.384C63.6288 390.384 60.7488 386.96 60.7488 382.704C60.7488 378.48 63.6288 375.056 68.2368 375.056C72.8768 375.056 75.7568 378.48 75.7568 382.704C75.7568 386.96 72.8768 390.384 68.2368 390.384ZM68.2368 388.496C71.6608 388.496 73.7088 385.936 73.7088 382.704C73.7088 379.472 71.6608 376.912 68.2368 376.912C64.8448 376.912 62.7968 379.472 62.7968 382.736C62.7968 385.936 64.8448 388.496 68.2368 388.496ZM87.4953 375.056C91.6873 375.056 94.6313 378.224 94.6313 382.736C94.6313 387.184 91.5913 390.384 87.3673 390.384C84.8073 390.384 82.5993 389.008 81.6393 386.864V396.88H79.5913V375.44H81.6393V378.608C82.5993 376.4 84.8393 375.056 87.4953 375.056ZM87.1433 388.528C90.3113 388.528 92.5833 386.096 92.5833 382.736C92.5833 379.344 90.3113 376.912 87.1433 376.912C83.8473 376.912 81.5433 379.344 81.5433 382.736C81.5433 386.096 83.8793 388.528 87.1433 388.528ZM109.09 390V378.992L100.514 388.912V390H98.4663V375.44H100.514V386.512L109.09 376.56V375.44H111.138V390H109.09ZM118.072 390H115.672L119.288 384.816C117.048 384.496 115.448 382.384 115.448 380.24C115.448 377.648 117.464 375.44 120.472 375.44H127.64V390H125.624V385.04H121.432L118.072 390ZM120.824 383.28H125.624V377.136H120.824C118.808 377.136 117.528 378.608 117.528 380.24C117.528 381.872 118.808 383.28 120.824 383.28ZM147.112 390.384C142.504 390.384 139.624 386.96 139.624 382.704C139.624 378.48 142.504 375.056 147.112 375.056C151.752 375.056 154.632 378.48 154.632 382.704C154.632 386.96 151.752 390.384 147.112 390.384ZM147.112 388.496C150.536 388.496 152.584 385.936 152.584 382.704C152.584 379.472 150.536 376.912 147.112 376.912C143.72 376.912 141.672 379.472 141.672 382.736C141.672 385.936 143.72 388.496 147.112 388.496ZM155.993 375.44H167.546V377.36H162.778V390H160.73V377.36H155.993V375.44ZM175.635 382.576H175.475L182.867 390H180.243L173.171 382.896V390H171.123V375.44H173.171V382H173.939C174.707 382 175.347 381.616 176.083 380.432L178.259 377.264C179.155 375.92 179.763 375.28 181.171 375.28H182.355V377.136H181.619C180.659 377.136 180.307 377.616 179.667 378.544L178.195 380.752C177.331 382.096 176.723 382.576 175.635 382.576ZM184.835 390.064V388.112H185.443C186.915 388.112 187.843 387.088 187.843 383.984V375.44H198.723V390H196.675V377.36H189.891V383.888C189.891 388.304 188.291 390.064 185.859 390.064H184.835ZM214.465 390V378.992L205.889 388.912V390H203.841V375.44H205.889V386.512L214.465 376.56V375.44H216.513V390H214.465ZM226.135 382.576H225.975L233.367 390H230.743L223.671 382.896V390H221.623V375.44H223.671V382H224.439C225.207 382 225.847 381.616 226.583 380.432L228.759 377.264C229.655 375.92 230.263 375.28 231.671 375.28H232.855V377.136H232.119C231.159 377.136 230.807 377.616 230.167 378.544L228.695 380.752C227.831 382.096 227.223 382.576 226.135 382.576ZM242.174 390.384C237.566 390.384 234.686 386.96 234.686 382.704C234.686 378.48 237.566 375.056 242.174 375.056C246.814 375.056 249.694 378.48 249.694 382.704C249.694 386.96 246.814 390.384 242.174 390.384ZM242.174 388.496C245.598 388.496 247.646 385.936 247.646 382.704C247.646 379.472 245.598 376.912 242.174 376.912C238.782 376.912 236.734 379.472 236.734 382.736C236.734 385.936 238.782 388.496 242.174 388.496ZM253.529 390V375.44H260.569C263.705 375.44 264.857 377.392 264.857 379.184C264.857 380.816 263.577 382.256 261.721 382.512C263.609 382.576 265.049 384.144 265.049 386.096C265.049 387.856 263.737 390 260.473 390H253.529ZM255.545 381.808H260.473C261.817 381.808 262.777 380.624 262.777 379.344C262.777 378.032 261.785 376.944 260.409 376.944H255.545V381.808ZM260.537 383.312H255.545V388.464H260.505C261.881 388.464 262.969 387.312 262.969 385.968C262.969 384.592 261.913 383.312 260.537 383.312Z" fill="black"/>
<path d="M13.5224 1753H11.9864V1742.08H13.5224V1746.86H19.9784V1742.08H21.5144V1753H19.9784V1748.18H13.5224V1753ZM29.8578 1753.29C26.4018 1753.29 24.3858 1750.79 24.3858 1747.55C24.3858 1744.31 26.4978 1741.79 29.8818 1741.79C31.8978 1741.79 33.4578 1742.85 34.1538 1744.46V1742.08H35.6658V1753H34.1538V1750.65C33.4578 1752.21 31.8018 1753.29 29.8578 1753.29ZM30.0258 1751.9C32.6898 1751.9 34.2258 1749.88 34.2258 1747.55C34.2258 1745.18 32.6898 1743.18 30.0258 1743.18C27.5058 1743.18 25.9218 1745.06 25.9218 1747.55C25.9218 1750.02 27.5058 1751.9 30.0258 1751.9ZM43.966 1753.29C40.654 1753.29 38.542 1750.94 38.542 1747.55C38.542 1744.17 40.654 1741.82 43.966 1741.82C46.846 1741.82 48.718 1743.38 49.006 1745.78H47.446C47.158 1744.1 45.886 1743.21 43.966 1743.21C41.566 1743.21 40.078 1744.89 40.078 1747.55C40.078 1750.19 41.566 1751.9 43.966 1751.9C45.886 1751.9 47.158 1750.98 47.446 1749.38H49.006C48.718 1751.73 46.846 1753.29 43.966 1753.29ZM50.0225 1742.08H58.6865V1743.52H55.1105V1753H53.5745V1743.52H50.0225V1742.08ZM67.2972 1741.79C70.4412 1741.79 72.6492 1744.17 72.6492 1747.55C72.6492 1750.89 70.3692 1753.29 67.2012 1753.29C65.2812 1753.29 63.6252 1752.26 62.9052 1750.65V1758.16H61.3692V1742.08H62.9052V1744.46C63.6252 1742.8 65.3052 1741.79 67.2972 1741.79ZM67.0332 1751.9C69.4092 1751.9 71.1132 1750.07 71.1132 1747.55C71.1132 1745.01 69.4092 1743.18 67.0332 1743.18C64.5612 1743.18 62.8332 1745.01 62.8332 1747.55C62.8332 1750.07 64.5852 1751.9 67.0332 1751.9ZM80.1815 1753.29C76.7255 1753.29 74.5655 1750.72 74.5655 1747.53C74.5655 1744.36 76.7255 1741.79 80.1815 1741.79C83.6615 1741.79 85.8215 1744.36 85.8215 1747.53C85.8215 1750.72 83.6615 1753.29 80.1815 1753.29ZM80.1815 1751.87C82.7495 1751.87 84.2855 1749.95 84.2855 1747.53C84.2855 1745.1 82.7495 1743.18 80.1815 1743.18C77.6375 1743.18 76.1015 1745.1 76.1015 1747.55C76.1015 1749.95 77.6375 1751.87 80.1815 1751.87ZM93.4253 1741.05C91.2173 1741.05 89.5853 1739.85 89.4173 1737.76H90.7613C90.8813 1739.15 92.0093 1739.87 93.4253 1739.87C94.8173 1739.87 95.9693 1739.15 96.0893 1737.76H97.4093C97.2413 1739.85 95.6093 1741.05 93.4253 1741.05ZM96.6653 1753V1744.74L90.2333 1752.18V1753H88.6973V1742.08H90.2333V1750.38L96.6653 1742.92V1742.08H98.2013V1753H96.6653ZM105.417 1747.43H105.297L110.841 1753H108.873L103.569 1747.67V1753H102.033V1742.08H103.569V1747H104.145C104.721 1747 105.201 1746.71 105.753 1745.82L107.385 1743.45C108.057 1742.44 108.513 1741.96 109.569 1741.96H110.457V1743.35H109.905C109.185 1743.35 108.921 1743.71 108.441 1744.41L107.337 1746.06C106.689 1747.07 106.233 1747.43 105.417 1747.43ZM121.486 1753V1744.74L115.054 1752.18V1753H113.518V1742.08H115.054V1750.38L121.486 1742.92V1742.08H123.022V1753H121.486Z" fill="black"/>
<path d="M388.188 1745.5C388.188 1745.2 388.175 1744.92 388.149 1744.62L390.552 1742.8C391.069 1742.41 391.211 1741.69 390.888 1741.12L388.472 1736.95C388.149 1736.38 387.452 1736.15 386.858 1736.41L384.081 1737.58C383.603 1737.25 383.099 1736.95 382.569 1736.7L382.195 1733.72C382.117 1733.07 381.562 1732.58 380.916 1732.58H376.098C375.439 1732.58 374.884 1733.07 374.807 1733.72L374.432 1736.7C373.902 1736.95 373.399 1737.25 372.921 1737.58L370.144 1736.41C369.549 1736.15 368.852 1736.38 368.529 1736.95L366.114 1741.13C365.791 1741.7 365.933 1742.41 366.449 1742.81L368.852 1744.63C368.826 1744.92 368.813 1745.2 368.813 1745.5C368.813 1745.8 368.826 1746.08 368.852 1746.38L366.449 1748.2C365.933 1748.59 365.791 1749.31 366.114 1749.88L368.529 1754.05C368.852 1754.62 369.549 1754.85 370.144 1754.59L372.921 1753.42C373.399 1753.75 373.902 1754.05 374.432 1754.3L374.807 1757.28C374.884 1757.93 375.439 1758.42 376.085 1758.42H380.903C381.549 1758.42 382.104 1757.93 382.182 1757.28L382.557 1754.3C383.086 1754.05 383.59 1753.75 384.068 1753.42L386.845 1754.59C387.439 1754.85 388.136 1754.62 388.459 1754.05L390.875 1749.88C391.198 1749.31 391.056 1748.6 390.539 1748.2L388.136 1746.38C388.175 1746.08 388.188 1745.8 388.188 1745.5ZM378.552 1750.02C376.059 1750.02 374.032 1747.99 374.032 1745.5C374.032 1743.01 376.059 1740.98 378.552 1740.98C381.045 1740.98 383.073 1743.01 383.073 1745.5C383.073 1747.99 381.045 1750.02 378.552 1750.02Z" fill="black"/>
<path d="M0 1H404V-1H0V1Z" fill="white" mask="url(#path-1-inside-1_50_562)"/>
</svg>
