<svg width="458" height="1251" viewBox="0 0 458 1251" fill="none" xmlns="http://www.w3.org/2000/svg">
<mask id="path-1-inside-1_52_693" fill="white">
<path d="M0 0H458V1251H0V0Z"/>
</mask>
<path d="M0 0H458V1251H0V0Z" fill="#E9E9EE"/>
<path d="M27.44 16.6V37.048H28.624V42.84H26.544V39H12.944V42.84H10.8V37.048H11.728C13.392 37.048 14.384 35.672 14.384 30.936V16.6H27.44ZM15.184 37.048H25.264V18.552H16.56V30.904C16.56 33.816 16.016 35.768 15.184 37.048ZM38.8573 39.384C34.2493 39.384 31.5613 36.056 31.5613 31.736C31.5613 27.416 34.3773 24.056 38.8893 24.056C41.5773 24.056 43.6573 25.464 44.5853 27.608V24.44H46.6013V39H44.5853V35.864C43.6573 37.944 41.4493 39.384 38.8573 39.384ZM39.0813 37.528C42.6333 37.528 44.6813 34.84 44.6813 31.736C44.6813 28.568 42.6333 25.912 39.0813 25.912C35.7213 25.912 33.6093 28.408 33.6093 31.736C33.6093 35.032 35.7213 37.528 39.0813 37.528ZM53.7643 39H51.7163V24.44H53.7643V30.808H62.3723V24.44H64.4203V39H62.3723V32.568H53.7643V39ZM71.5768 39H69.5288V24.44H71.5768V30.808H80.1848V24.44H82.2328V39H80.1848V32.568H71.5768V39ZM87.3413 39V24.44H89.3893V29.912H93.6453C96.4613 29.912 98.3813 31.928 98.3813 34.456C98.3813 36.952 96.3333 39 93.5813 39H87.3413ZM102.733 39H100.685V24.44H102.733V39ZM93.4853 31.608H89.3893V37.304H93.3893C95.1173 37.304 96.2373 36.024 96.2373 34.456C96.2373 32.888 95.1493 31.608 93.4853 31.608ZM120.481 30.808C120.481 31.32 120.449 31.672 120.417 32.184H108.641C108.641 35.48 110.625 37.56 113.761 37.56C115.969 37.56 117.569 36.536 118.209 34.904H120.289C119.713 37.56 117.089 39.384 113.761 39.384C109.377 39.384 106.561 36.344 106.561 31.704C106.561 27.064 109.409 24.056 113.633 24.056C117.729 24.056 120.481 26.872 120.481 30.808ZM108.641 30.552H118.465C118.433 27.672 116.641 25.72 113.633 25.72C110.721 25.72 108.833 27.704 108.641 30.552Z" fill="black"/>
<path d="M24.8 116H22.72V93.6H24.8L33.024 112.992L41.248 93.6H43.328V116H41.248V98.144L33.888 116H32.16L24.8 98.048V116ZM61.2625 107.808C61.2625 108.32 61.2305 108.672 61.1985 109.184H49.4225C49.4225 112.48 51.4065 114.56 54.5425 114.56C56.7505 114.56 58.3505 113.536 58.9905 111.904H61.0705C60.4945 114.56 57.8705 116.384 54.5425 116.384C50.1585 116.384 47.3425 113.344 47.3425 108.704C47.3425 104.064 50.1905 101.056 54.4145 101.056C58.5105 101.056 61.2625 103.872 61.2625 107.808ZM49.4225 107.552H59.2465C59.2145 104.672 57.4225 102.72 54.4145 102.72C51.5025 102.72 49.6145 104.704 49.4225 107.552ZM72.9953 101.056C77.1873 101.056 80.1313 104.224 80.1313 108.736C80.1313 113.184 77.0913 116.384 72.8673 116.384C70.3073 116.384 68.0993 115.008 67.1393 112.864V122.88H65.0913V101.44H67.1393V104.608C68.0993 102.4 70.3393 101.056 72.9953 101.056ZM72.6433 114.528C75.8113 114.528 78.0833 112.096 78.0833 108.736C78.0833 105.344 75.8113 102.912 72.6433 102.912C69.3473 102.912 67.0433 105.344 67.0433 108.736C67.0433 112.096 69.3793 114.528 72.6433 114.528ZM90.1743 116.384C85.5663 116.384 82.6863 112.96 82.6863 108.704C82.6863 104.48 85.5663 101.056 90.1743 101.056C94.8143 101.056 97.6943 104.48 97.6943 108.704C97.6943 112.96 94.8143 116.384 90.1743 116.384ZM90.1743 114.496C93.5983 114.496 95.6463 111.936 95.6463 108.704C95.6463 105.472 93.5983 102.912 90.1743 102.912C86.7823 102.912 84.7343 105.472 84.7343 108.736C84.7343 111.936 86.7823 114.496 90.1743 114.496ZM114.361 101.44V116H112.313V103.2H103.577V116H101.529V101.44H114.361ZM127.37 101.056C131.562 101.056 134.506 104.224 134.506 108.736C134.506 113.184 131.466 116.384 127.242 116.384C124.682 116.384 122.474 115.008 121.514 112.864V122.88H119.466V101.44H121.514V104.608C122.474 102.4 124.714 101.056 127.37 101.056ZM127.018 114.528C130.186 114.528 132.458 112.096 132.458 108.736C132.458 105.344 130.186 102.912 127.018 102.912C123.722 102.912 121.418 105.344 121.418 108.736C121.418 112.096 123.754 114.528 127.018 114.528ZM148.965 116V104.992L140.389 114.912V116H138.341V101.44H140.389V112.512L148.965 102.56V101.44H151.013V116H148.965ZM157.947 116H155.547L159.163 110.816C156.923 110.496 155.323 108.384 155.323 106.24C155.323 103.648 157.339 101.44 160.347 101.44H167.515V116H165.499V111.04H161.307L157.947 116ZM160.699 109.28H165.499V103.136H160.699C158.683 103.136 157.403 104.608 157.403 106.24C157.403 107.872 158.683 109.28 160.699 109.28ZM171.118 101.44H182.671V103.36H177.903V116H175.855V103.36H171.118V101.44ZM196.872 116V104.992L188.296 114.912V116H186.248V101.44H188.296V112.512L196.872 102.56V101.44H198.92V116H196.872ZM205.853 116H203.453L207.069 110.816C204.829 110.496 203.229 108.384 203.229 106.24C203.229 103.648 205.245 101.44 208.253 101.44H215.421V116H213.405V111.04H209.213L205.853 116ZM208.605 109.28H213.405V103.136H208.605C206.589 103.136 205.309 104.608 205.309 106.24C205.309 107.872 206.589 109.28 208.605 109.28Z" fill="black"/>
<path d="M375.35 102.488L371.5 106.337L367.65 102.488L365.875 104.25L371.5 109.875L377.125 104.25L375.35 102.488ZM371.5 93C364.6 93 359 98.6 359 105.5C359 112.4 364.6 118 371.5 118C378.4 118 384 112.4 384 105.5C384 98.6 378.4 93 371.5 93ZM371.5 115.5C365.975 115.5 361.5 111.025 361.5 105.5C361.5 99.975 365.975 95.5 371.5 95.5C377.025 95.5 381.5 99.975 381.5 105.5C381.5 111.025 377.025 115.5 371.5 115.5Z" fill="black"/>
<path d="M111.832 163.48C104.632 163.48 100.28 158.296 100.28 151.8C100.28 145.304 104.632 140.12 111.832 140.12C117.784 140.12 121.432 143.32 122.392 147.64H120.056C119.096 144.344 116.376 142.072 111.832 142.072C105.976 142.072 102.52 146.328 102.52 151.8C102.52 157.272 105.976 161.528 111.832 161.528C116.376 161.528 119.096 159.256 120.056 155.96H122.392C121.432 160.28 117.784 163.48 111.832 163.48ZM132.706 163.384C128.098 163.384 125.218 159.96 125.218 155.704C125.218 151.48 128.098 148.056 132.706 148.056C137.346 148.056 140.226 151.48 140.226 155.704C140.226 159.96 137.346 163.384 132.706 163.384ZM132.706 161.496C136.13 161.496 138.178 158.936 138.178 155.704C138.178 152.472 136.13 149.912 132.706 149.912C129.314 149.912 127.266 152.472 127.266 155.736C127.266 158.936 129.314 161.496 132.706 161.496ZM143.036 158.872H145.116C145.116 160.536 146.588 161.624 149.116 161.624C151.516 161.624 152.892 160.632 152.892 158.968C152.892 157.464 151.74 156.44 149.724 156.44H147.484V154.84H149.66C151.42 154.84 152.604 153.816 152.604 152.248C152.604 150.808 151.26 149.752 149.148 149.752C146.716 149.752 145.436 150.84 145.436 152.376H143.324C143.324 149.848 145.628 148.056 149.148 148.056C152.444 148.056 154.652 149.72 154.652 152.024C154.652 153.912 153.436 155.224 151.516 155.544C153.532 155.736 154.94 157.112 154.94 159.16C154.94 161.752 152.348 163.352 149.02 163.352C145.34 163.352 143.036 161.56 143.036 158.872ZM171.25 148.44V161.048H172.434V166.84H170.386V163H159.378V166.84H157.234V161.048H158.642C159.602 160.632 160.178 159.352 160.178 156.856V148.44H171.25ZM161.106 161.24H169.202V150.168H162.226V156.76C162.226 158.808 161.778 160.248 161.106 161.24ZM182.607 163.384C177.999 163.384 175.311 160.056 175.311 155.736C175.311 151.416 178.127 148.056 182.639 148.056C185.327 148.056 187.407 149.464 188.335 151.608V148.44H190.351V163H188.335V159.864C187.407 161.944 185.199 163.384 182.607 163.384ZM182.831 161.528C186.383 161.528 188.431 158.84 188.431 155.736C188.431 152.568 186.383 149.912 182.831 149.912C179.471 149.912 177.359 152.408 177.359 155.736C177.359 159.032 179.471 161.528 182.831 161.528ZM197.514 163H195.466V148.44H197.514V154.808H206.122V148.44H208.17V163H206.122V156.568H197.514V163ZM223.903 163V151.992L215.327 161.912V163H213.279V148.44H215.327V159.512L223.903 149.56V148.44H225.951V163H223.903ZM243.7 154.808C243.7 155.32 243.668 155.672 243.636 156.184H231.86C231.86 159.48 233.844 161.56 236.98 161.56C239.188 161.56 240.788 160.536 241.428 158.904H243.508C242.932 161.56 240.308 163.384 236.98 163.384C232.596 163.384 229.78 160.344 229.78 155.704C229.78 151.064 232.628 148.056 236.852 148.056C240.948 148.056 243.7 150.872 243.7 154.808ZM231.86 154.552H241.684C241.652 151.672 239.86 149.72 236.852 149.72C233.94 149.72 232.052 151.704 231.86 154.552ZM101.72 177.6H109.528C113.816 177.6 116.888 180.8 116.888 185.216C116.888 189.664 113.784 192.864 109.528 192.864H103.864V200H101.72V177.6ZM103.864 190.912H109.4C112.504 190.912 114.744 188.512 114.744 185.216C114.744 181.952 112.504 179.552 109.4 179.552H103.864V190.912ZM126.045 200.384C121.437 200.384 118.749 197.056 118.749 192.736C118.749 188.416 121.565 185.056 126.077 185.056C128.765 185.056 130.845 186.464 131.773 188.608V185.44H133.789V200H131.773V196.864C130.845 198.944 128.637 200.384 126.045 200.384ZM126.269 198.528C129.821 198.528 131.869 195.84 131.869 192.736C131.869 189.568 129.821 186.912 126.269 186.912C122.909 186.912 120.797 189.408 120.797 192.736C120.797 196.032 122.909 198.528 126.269 198.528ZM137.88 195.872H139.96C139.96 197.536 141.432 198.624 143.96 198.624C146.36 198.624 147.736 197.632 147.736 195.968C147.736 194.464 146.584 193.44 144.568 193.44H142.328V191.84H144.504C146.264 191.84 147.448 190.816 147.448 189.248C147.448 187.808 146.104 186.752 143.992 186.752C141.56 186.752 140.28 187.84 140.28 189.376H138.168C138.168 186.848 140.472 185.056 143.992 185.056C147.288 185.056 149.496 186.72 149.496 189.024C149.496 190.912 148.28 192.224 146.36 192.544C148.376 192.736 149.784 194.112 149.784 196.16C149.784 198.752 147.192 200.352 143.864 200.352C140.184 200.352 137.88 198.56 137.88 195.872ZM155.982 200H153.998V185.44H157.134L162.51 197.184L167.918 185.44H171.054L171.022 200H169.069V187.424L163.214 200H161.838L155.982 187.424V200ZM188.825 191.808C188.825 192.32 188.793 192.672 188.761 193.184H176.985C176.985 196.48 178.969 198.56 182.105 198.56C184.313 198.56 185.913 197.536 186.553 195.904H188.633C188.057 198.56 185.433 200.384 182.105 200.384C177.721 200.384 174.905 197.344 174.905 192.704C174.905 188.064 177.753 185.056 181.977 185.056C186.073 185.056 188.825 187.872 188.825 191.808ZM176.985 191.552H186.809C186.777 188.672 184.985 186.72 181.977 186.72C179.065 186.72 177.177 188.704 176.985 191.552ZM212.942 185.44V198.048H214.094V203.84H212.046V200H192.654V185.44H194.702V198.24H201.774V185.44H203.822V198.24H210.862V185.44H212.942ZM230.825 191.808C230.825 192.32 230.793 192.672 230.761 193.184H218.985C218.985 196.48 220.969 198.56 224.105 198.56C226.313 198.56 227.913 197.536 228.553 195.904H230.633C230.057 198.56 227.433 200.384 224.105 200.384C219.721 200.384 216.905 197.344 216.905 192.704C216.905 188.064 219.753 185.056 223.977 185.056C228.073 185.056 230.825 187.872 230.825 191.808ZM218.985 191.552H228.809C228.777 188.672 226.985 186.72 223.977 186.72C221.065 186.72 219.177 188.704 218.985 191.552ZM236.702 200H234.654V185.44H236.702V191.808H245.31V185.44H247.358V200H245.31V193.568H236.702V200ZM254.514 200H252.466V185.44H254.514V191.808H263.122V185.44H265.17V200H263.122V193.568H254.514V200ZM270.279 200V185.44H272.327V190.912H276.583C279.399 190.912 281.319 192.928 281.319 195.456C281.319 197.952 279.271 200 276.519 200H270.279ZM285.671 200H283.623V185.44H285.671V200ZM276.423 192.608H272.327V198.304H276.327C278.055 198.304 279.175 197.024 279.175 195.456C279.175 193.888 278.087 192.608 276.423 192.608ZM303.419 191.808C303.419 192.32 303.387 192.672 303.355 193.184H291.579C291.579 196.48 293.563 198.56 296.699 198.56C298.907 198.56 300.507 197.536 301.147 195.904H303.227C302.651 198.56 300.027 200.384 296.699 200.384C292.315 200.384 289.499 197.344 289.499 192.704C289.499 188.064 292.347 185.056 296.571 185.056C300.667 185.056 303.419 187.872 303.419 191.808ZM291.579 191.552H301.403C301.371 188.672 299.579 186.72 296.571 186.72C293.659 186.72 291.771 188.704 291.579 191.552ZM115.32 216.552H103.864V237H101.72V214.6H117.464V237H115.32V216.552ZM130.652 222.056C134.844 222.056 137.788 225.224 137.788 229.736C137.788 234.184 134.748 237.384 130.524 237.384C127.964 237.384 125.756 236.008 124.796 233.864V243.88H122.748V222.44H124.796V225.608C125.756 223.4 127.996 222.056 130.652 222.056ZM130.3 235.528C133.468 235.528 135.74 233.096 135.74 229.736C135.74 226.344 133.468 223.912 130.3 223.912C127.004 223.912 124.7 226.344 124.7 229.736C124.7 233.096 127.036 235.528 130.3 235.528ZM147.831 237.384C143.223 237.384 140.343 233.96 140.343 229.704C140.343 225.48 143.223 222.056 147.831 222.056C152.471 222.056 155.351 225.48 155.351 229.704C155.351 233.96 152.471 237.384 147.831 237.384ZM147.831 235.496C151.255 235.496 153.303 232.936 153.303 229.704C153.303 226.472 151.255 223.912 147.831 223.912C144.439 223.912 142.391 226.472 142.391 229.736C142.391 232.936 144.439 235.496 147.831 235.496ZM170.353 222.44V235.24H177.393V222.44H179.473V237H159.185V222.44H161.233V235.24H168.305V222.44H170.353ZM197.231 228.808C197.231 229.32 197.199 229.672 197.167 230.184H185.391C185.391 233.48 187.375 235.56 190.511 235.56C192.719 235.56 194.319 234.536 194.959 232.904H197.039C196.463 235.56 193.839 237.384 190.511 237.384C186.127 237.384 183.311 234.344 183.311 229.704C183.311 225.064 186.159 222.056 190.383 222.056C194.479 222.056 197.231 224.872 197.231 228.808ZM185.391 228.552H195.215C195.183 225.672 193.391 223.72 190.383 223.72C187.471 223.72 185.583 225.704 185.391 228.552ZM213 222.44V235.048H214.184V240.84H212.136V237H201.128V240.84H198.984V235.048H200.392C201.352 234.632 201.928 233.352 201.928 230.856V222.44H213ZM202.856 235.24H210.952V224.168H203.976V230.76C203.976 232.808 203.528 234.248 202.856 235.24ZM229.572 222.44V235.24H236.612V222.44H238.692V237H218.404V222.44H220.452V235.24H227.524V222.44H229.572ZM254.434 237V225.992L245.858 235.912V237H243.81V222.44H245.858V233.512L254.434 223.56V222.44H256.482V237H254.434ZM274.231 228.808C274.231 229.32 274.199 229.672 274.167 230.184H262.391C262.391 233.48 264.375 235.56 267.511 235.56C269.719 235.56 271.319 234.536 271.959 232.904H274.039C273.463 235.56 270.839 237.384 267.511 237.384C263.127 237.384 260.311 234.344 260.311 229.704C260.311 225.064 263.159 222.056 267.383 222.056C271.479 222.056 274.231 224.872 274.231 228.808ZM262.391 228.552H272.215C272.183 225.672 270.391 223.72 267.383 223.72C264.471 223.72 262.583 225.704 262.391 228.552Z" fill="black"/>
<path d="M32.512 302.64C34.944 302.992 36.928 304.944 36.928 308.016C36.928 311.728 34.304 314 30.176 314H22.72V291.6H29.984C34.08 291.6 36.704 293.744 36.704 297.392C36.704 300.4 35.008 302.16 32.512 302.64ZM29.888 293.52H24.864V301.744H30.304C32.8 301.744 34.56 300.176 34.56 297.616C34.56 295.024 32.768 293.52 29.888 293.52ZM24.864 312.08H30.144C32.992 312.08 34.784 310.512 34.784 307.824C34.784 305.296 32.96 303.664 30.592 303.664H24.864V312.08ZM47.1073 314.384C42.4993 314.384 39.8113 311.056 39.8113 306.736C39.8113 302.416 42.6273 299.056 47.1393 299.056C49.8273 299.056 51.9073 300.464 52.8353 302.608V299.44H54.8513V314H52.8353V310.864C51.9073 312.944 49.6993 314.384 47.1073 314.384ZM47.3313 312.528C50.8833 312.528 52.9313 309.84 52.9313 306.736C52.9313 303.568 50.8833 300.912 47.3313 300.912C43.9713 300.912 41.8593 303.408 41.8593 306.736C41.8593 310.032 43.9713 312.528 47.3313 312.528ZM64.4783 306.576H64.3183L71.7103 314H69.0863L62.0143 306.896V314H59.9663V299.44H62.0143V306H62.7823C63.5503 306 64.1903 305.616 64.9263 304.432L67.1023 301.264C67.9983 299.92 68.6063 299.28 70.0143 299.28H71.1983V301.136H70.4623C69.5023 301.136 69.1503 301.616 68.5103 302.544L67.0383 304.752C66.1743 306.096 65.5663 306.576 64.4783 306.576ZM80.4198 314.384C75.8118 314.384 73.1238 311.056 73.1238 306.736C73.1238 302.416 75.9398 299.056 80.4518 299.056C83.1398 299.056 85.2198 300.464 86.1478 302.608V299.44H88.1638V314H86.1478V310.864C85.2198 312.944 83.0118 314.384 80.4198 314.384ZM80.6438 312.528C84.1958 312.528 86.2438 309.84 86.2438 306.736C86.2438 303.568 84.1958 300.912 80.6438 300.912C77.2838 300.912 75.1718 303.408 75.1718 306.736C75.1718 310.032 77.2838 312.528 80.6438 312.528ZM95.3268 314H93.2788V299.44H95.3268V305.808H103.935V299.44H105.983V314H103.935V307.568H95.3268V314ZM117.043 314.384C112.627 314.384 109.811 311.248 109.811 306.736C109.811 302.224 112.627 299.088 117.043 299.088C120.883 299.088 123.379 301.168 123.763 304.368H121.683C121.299 302.128 119.603 300.944 117.043 300.944C113.843 300.944 111.859 303.184 111.859 306.736C111.859 310.256 113.843 312.528 117.043 312.528C119.603 312.528 121.299 311.312 121.683 309.168H123.763C123.379 312.304 120.883 314.384 117.043 314.384ZM138.215 314V302.992L129.639 312.912V314H127.591V299.44H129.639V310.512L138.215 300.56V299.44H140.263V314H138.215ZM155.997 314V302.992L147.421 312.912V314H145.373V299.44H147.421V310.512L155.997 300.56V299.44H158.045V314H155.997Z" fill="black"/>
<path d="M375.35 300.488L371.5 304.337L367.65 300.488L365.875 302.25L371.5 307.875L377.125 302.25L375.35 300.488ZM371.5 291C364.6 291 359 296.6 359 303.5C359 310.4 364.6 316 371.5 316C378.4 316 384 310.4 384 303.5C384 296.6 378.4 291 371.5 291ZM371.5 313.5C365.975 313.5 361.5 309.025 361.5 303.5C361.5 297.975 365.975 293.5 371.5 293.5C377.025 293.5 381.5 297.975 381.5 303.5C381.5 309.025 377.025 313.5 371.5 313.5Z" fill="black"/>
<path d="M94.332 361.48C87.132 361.48 82.78 356.296 82.78 349.8C82.78 343.304 87.132 338.12 94.332 338.12C100.284 338.12 103.932 341.32 104.892 345.64H102.556C101.596 342.344 98.876 340.072 94.332 340.072C88.476 340.072 85.02 344.328 85.02 349.8C85.02 355.272 88.476 359.528 94.332 359.528C98.876 359.528 101.596 357.256 102.556 353.96H104.892C103.932 358.28 100.284 361.48 94.332 361.48ZM115.206 361.384C110.598 361.384 107.718 357.96 107.718 353.704C107.718 349.48 110.598 346.056 115.206 346.056C119.846 346.056 122.726 349.48 122.726 353.704C122.726 357.96 119.846 361.384 115.206 361.384ZM115.206 359.496C118.63 359.496 120.678 356.936 120.678 353.704C120.678 350.472 118.63 347.912 115.206 347.912C111.814 347.912 109.766 350.472 109.766 353.736C109.766 356.936 111.814 359.496 115.206 359.496ZM125.536 356.872H127.616C127.616 358.536 129.088 359.624 131.616 359.624C134.016 359.624 135.392 358.632 135.392 356.968C135.392 355.464 134.24 354.44 132.224 354.44H129.984V352.84H132.16C133.92 352.84 135.104 351.816 135.104 350.248C135.104 348.808 133.76 347.752 131.648 347.752C129.216 347.752 127.936 348.84 127.936 350.376H125.824C125.824 347.848 128.128 346.056 131.648 346.056C134.944 346.056 137.152 347.72 137.152 350.024C137.152 351.912 135.936 353.224 134.016 353.544C136.032 353.736 137.44 355.112 137.44 357.16C137.44 359.752 134.848 361.352 131.52 361.352C127.84 361.352 125.536 359.56 125.536 356.872ZM153.75 346.44V359.048H154.934V364.84H152.886V361H141.878V364.84H139.734V359.048H141.142C142.102 358.632 142.678 357.352 142.678 354.856V346.44H153.75ZM143.606 359.24H151.702V348.168H144.726V354.76C144.726 356.808 144.278 358.248 143.606 359.24ZM165.107 361.384C160.499 361.384 157.811 358.056 157.811 353.736C157.811 349.416 160.627 346.056 165.139 346.056C167.827 346.056 169.907 347.464 170.835 349.608V346.44H172.851V361H170.835V357.864C169.907 359.944 167.699 361.384 165.107 361.384ZM165.331 359.528C168.883 359.528 170.931 356.84 170.931 353.736C170.931 350.568 168.883 347.912 165.331 347.912C161.971 347.912 159.859 350.408 159.859 353.736C159.859 357.032 161.971 359.528 165.331 359.528ZM180.014 361H177.966V346.44H180.014V352.808H188.622V346.44H190.67V361H188.622V354.568H180.014V361ZM206.403 361V349.992L197.827 359.912V361H195.779V346.44H197.827V357.512L206.403 347.56V346.44H208.451V361H206.403ZM226.2 352.808C226.2 353.32 226.168 353.672 226.136 354.184H214.36C214.36 357.48 216.344 359.56 219.48 359.56C221.688 359.56 223.288 358.536 223.928 356.904H226.008C225.432 359.56 222.808 361.384 219.48 361.384C215.096 361.384 212.28 358.344 212.28 353.704C212.28 349.064 215.128 346.056 219.352 346.056C223.448 346.056 226.2 348.872 226.2 352.808ZM214.36 352.552H224.184C224.152 349.672 222.36 347.72 219.352 347.72C216.44 347.72 214.552 349.704 214.36 352.552ZM84.22 375.6H92.028C96.316 375.6 99.388 378.8 99.388 383.216C99.388 387.664 96.284 390.864 92.028 390.864H86.364V398H84.22V375.6ZM86.364 388.912H91.9C95.004 388.912 97.244 386.512 97.244 383.216C97.244 379.952 95.004 377.552 91.9 377.552H86.364V388.912ZM108.545 398.384C103.937 398.384 101.249 395.056 101.249 390.736C101.249 386.416 104.065 383.056 108.577 383.056C111.265 383.056 113.345 384.464 114.273 386.608V383.44H116.289V398H114.273V394.864C113.345 396.944 111.137 398.384 108.545 398.384ZM108.769 396.528C112.321 396.528 114.369 393.84 114.369 390.736C114.369 387.568 112.321 384.912 108.769 384.912C105.409 384.912 103.297 387.408 103.297 390.736C103.297 394.032 105.409 396.528 108.769 396.528ZM120.38 393.872H122.46C122.46 395.536 123.932 396.624 126.46 396.624C128.86 396.624 130.236 395.632 130.236 393.968C130.236 392.464 129.084 391.44 127.068 391.44H124.828V389.84H127.004C128.764 389.84 129.948 388.816 129.948 387.248C129.948 385.808 128.604 384.752 126.492 384.752C124.06 384.752 122.78 385.84 122.78 387.376H120.668C120.668 384.848 122.972 383.056 126.492 383.056C129.788 383.056 131.996 384.72 131.996 387.024C131.996 388.912 130.78 390.224 128.86 390.544C130.876 390.736 132.284 392.112 132.284 394.16C132.284 396.752 129.692 398.352 126.364 398.352C122.684 398.352 120.38 396.56 120.38 393.872ZM138.482 398H136.498V383.44H139.634L145.01 395.184L150.418 383.44H153.554L153.522 398H151.569V385.424L145.714 398H144.338L138.482 385.424V398ZM171.325 389.808C171.325 390.32 171.293 390.672 171.261 391.184H159.485C159.485 394.48 161.469 396.56 164.605 396.56C166.813 396.56 168.413 395.536 169.053 393.904H171.133C170.557 396.56 167.933 398.384 164.605 398.384C160.221 398.384 157.405 395.344 157.405 390.704C157.405 386.064 160.253 383.056 164.477 383.056C168.573 383.056 171.325 385.872 171.325 389.808ZM159.485 389.552H169.309C169.277 386.672 167.485 384.72 164.477 384.72C161.565 384.72 159.677 386.704 159.485 389.552ZM195.442 383.44V396.048H196.594V401.84H194.546V398H175.154V383.44H177.202V396.24H184.274V383.44H186.322V396.24H193.362V383.44H195.442ZM213.325 389.808C213.325 390.32 213.293 390.672 213.261 391.184H201.485C201.485 394.48 203.469 396.56 206.605 396.56C208.813 396.56 210.413 395.536 211.053 393.904H213.133C212.557 396.56 209.933 398.384 206.605 398.384C202.221 398.384 199.405 395.344 199.405 390.704C199.405 386.064 202.253 383.056 206.477 383.056C210.573 383.056 213.325 385.872 213.325 389.808ZM201.485 389.552H211.309C211.277 386.672 209.485 384.72 206.477 384.72C203.565 384.72 201.677 386.704 201.485 389.552ZM219.202 398H217.154V383.44H219.202V389.808H227.81V383.44H229.858V398H227.81V391.568H219.202V398ZM237.014 398H234.966V383.44H237.014V389.808H245.622V383.44H247.67V398H245.622V391.568H237.014V398ZM252.779 398V383.44H254.827V388.912H259.083C261.899 388.912 263.819 390.928 263.819 393.456C263.819 395.952 261.771 398 259.019 398H252.779ZM268.171 398H266.123V383.44H268.171V398ZM258.923 390.608H254.827V396.304H258.827C260.555 396.304 261.675 395.024 261.675 393.456C261.675 391.888 260.587 390.608 258.923 390.608ZM285.919 389.808C285.919 390.32 285.887 390.672 285.855 391.184H274.079C274.079 394.48 276.063 396.56 279.199 396.56C281.407 396.56 283.007 395.536 283.647 393.904H285.727C285.151 396.56 282.527 398.384 279.199 398.384C274.815 398.384 271.999 395.344 271.999 390.704C271.999 386.064 274.847 383.056 279.071 383.056C283.167 383.056 285.919 385.872 285.919 389.808ZM274.079 389.552H283.903C283.871 386.672 282.079 384.72 279.071 384.72C276.159 384.72 274.271 386.704 274.079 389.552ZM297.428 402.928L296.18 404.112C292.308 400.72 289.268 396.144 289.268 389.328C289.268 382.48 292.308 377.904 296.18 374.512L297.428 375.696C293.556 379.408 291.316 383.568 291.316 389.328C291.316 395.056 293.556 399.216 297.428 402.928ZM304.966 391.664H302.918V391.024C302.918 388.88 303.43 387.728 305.062 386.576L306.79 385.392C308.07 384.496 309.126 383.152 309.126 381.072C309.126 378.736 307.526 376.976 304.582 376.976C301.606 376.976 299.654 378.896 299.654 382.192H297.51C297.51 377.808 300.262 375.056 304.678 375.056C309.03 375.056 311.334 377.616 311.334 381.008C311.334 383.824 309.798 385.456 308.198 386.64L306.63 387.76C305.414 388.624 304.966 389.328 304.966 391.056V391.664ZM303.942 398.192C302.822 398.192 301.99 397.328 301.99 396.24C301.99 395.152 302.822 394.256 303.942 394.256C305.03 394.256 305.894 395.152 305.894 396.24C305.894 397.328 305.03 398.192 303.942 398.192ZM313.241 404.112L311.961 402.928C315.865 399.216 318.073 395.056 318.073 389.328C318.073 383.568 315.865 379.408 311.961 375.696L313.241 374.512C317.113 377.904 320.121 382.48 320.121 389.328C320.121 396.144 317.113 400.72 313.241 404.112ZM94.3 435.48C87.1 435.48 82.78 430.008 82.78 423.8C82.78 417.592 87.1 412.12 94.3 412.12C101.5 412.12 105.82 417.592 105.82 423.8C105.82 430.008 101.5 435.48 94.3 435.48ZM94.3 433.528C100.156 433.528 103.58 428.984 103.58 423.8C103.58 418.616 100.156 414.072 94.3 414.072C88.444 414.072 85.02 418.616 85.02 423.8C85.02 428.984 88.444 433.528 94.3 433.528ZM108.15 420.44H119.702V422.36H114.934V435H112.886V422.36H108.15V420.44ZM127.791 427.576H127.631L135.023 435H132.399L125.327 427.896V435H123.279V420.44H125.327V427H126.095C126.863 427 127.503 426.616 128.239 425.432L130.415 422.264C131.311 420.92 131.919 420.28 133.327 420.28H134.511V422.136H133.775C132.815 422.136 132.463 422.616 131.823 423.544L130.351 425.752C129.487 427.096 128.879 427.576 127.791 427.576ZM136.991 435.064V433.112H137.599C139.071 433.112 139.999 432.088 139.999 428.984V420.44H150.879V435H148.831V422.36H142.047V428.888C142.047 433.304 140.447 435.064 138.015 435.064H136.991ZM166.622 435V423.992L158.046 433.912V435H155.998V420.44H158.046V431.512L166.622 421.56V420.44H168.67V435H166.622ZM178.291 427.576H178.131L185.523 435H182.899L175.827 427.896V435H173.779V420.44H175.827V427H176.595C177.363 427 178.003 426.616 178.739 425.432L180.915 422.264C181.811 420.92 182.419 420.28 183.827 420.28H185.011V422.136H184.275C183.315 422.136 182.963 422.616 182.323 423.544L180.851 425.752C179.987 427.096 179.379 427.576 178.291 427.576ZM199.715 435V423.992L191.139 433.912V435H189.091V420.44H191.139V431.512L199.715 421.56V420.44H201.763V435H199.715Z" fill="black"/>
<path d="M32.832 512.48C25.632 512.48 21.28 507.296 21.28 500.8C21.28 494.304 25.632 489.12 32.832 489.12C38.784 489.12 42.432 492.32 43.392 496.64H41.056C40.096 493.344 37.376 491.072 32.832 491.072C26.976 491.072 23.52 495.328 23.52 500.8C23.52 506.272 26.976 510.528 32.832 510.528C37.376 510.528 40.096 508.256 41.056 504.96H43.392C42.432 509.28 38.784 512.48 32.832 512.48ZM53.7055 512.384C49.0975 512.384 46.2175 508.96 46.2175 504.704C46.2175 500.48 49.0975 497.056 53.7055 497.056C58.3455 497.056 61.2255 500.48 61.2255 504.704C61.2255 508.96 58.3455 512.384 53.7055 512.384ZM53.7055 510.496C57.1295 510.496 59.1775 507.936 59.1775 504.704C59.1775 501.472 57.1295 498.912 53.7055 498.912C50.3135 498.912 48.2655 501.472 48.2655 504.736C48.2655 507.936 50.3135 510.496 53.7055 510.496ZM62.5872 497.44H74.1393V499.36H69.3713V512H67.3233V499.36H62.5872V497.44ZM85.6203 497.056C89.8123 497.056 92.7563 500.224 92.7563 504.736C92.7563 509.184 89.7163 512.384 85.4923 512.384C82.9323 512.384 80.7243 511.008 79.7643 508.864V518.88H77.7163V497.44H79.7643V500.608C80.7243 498.4 82.9643 497.056 85.6203 497.056ZM85.2683 510.528C88.4363 510.528 90.7083 508.096 90.7083 504.736C90.7083 501.344 88.4363 498.912 85.2683 498.912C81.9723 498.912 79.6683 501.344 79.6683 504.736C79.6683 508.096 82.0043 510.528 85.2683 510.528ZM107.567 504.896V497.44H109.615V512.48C109.615 514.848 108.911 516.64 107.567 517.792C106.447 518.752 104.879 519.264 102.959 519.264C100.911 519.264 99.2153 518.752 98.0633 517.792C97.0393 516.896 96.4633 515.648 96.4313 514.048H98.5113C98.5753 515.968 99.7273 517.504 102.927 517.504C105.839 517.504 107.567 515.936 107.567 512.352V508.768C106.767 510.752 104.911 512.352 102.127 512.352C98.0953 512.352 96.4313 509.856 96.4313 505.888V497.44H98.4793V505.504C98.4793 508.544 99.4393 510.496 102.767 510.496C106.031 510.496 107.567 507.616 107.567 504.896ZM126.844 497.44V510.048H128.028V515.84H125.98V512H114.972V515.84H112.828V510.048H114.236C115.196 509.632 115.772 508.352 115.772 505.856V497.44H126.844ZM116.7 510.24H124.796V499.168H117.82V505.76C117.82 507.808 117.372 509.248 116.7 510.24ZM134.296 512H132.248V497.44H134.296V503.808H142.904V497.44H144.952V512H142.904V505.568H134.296V512ZM160.684 512V500.992L152.108 510.912V512H150.06V497.44H152.108V508.512L160.684 498.56V497.44H162.732V512H160.684ZM172.353 504.576H172.193L179.585 512H176.961L169.889 504.896V512H167.841V497.44H169.889V504H170.657C171.425 504 172.065 503.616 172.801 502.432L174.977 499.264C175.873 497.92 176.481 497.28 177.889 497.28H179.073V499.136H178.337C177.377 499.136 177.025 499.616 176.385 500.544L174.913 502.752C174.049 504.096 173.441 504.576 172.353 504.576ZM193.778 512V500.992L185.202 510.912V512H183.154V497.44H185.202V508.512L193.778 498.56V497.44H195.826V512H193.778Z" fill="black"/>
<path d="M375.35 498.488L371.5 502.337L367.65 498.488L365.875 500.25L371.5 505.875L377.125 500.25L375.35 498.488ZM371.5 489C364.6 489 359 494.6 359 501.5C359 508.4 364.6 514 371.5 514C378.4 514 384 508.4 384 501.5C384 494.6 378.4 489 371.5 489ZM371.5 511.5C365.975 511.5 361.5 507.025 361.5 501.5C361.5 495.975 365.975 491.5 371.5 491.5C377.025 491.5 381.5 495.975 381.5 501.5C381.5 507.025 377.025 511.5 371.5 511.5Z" fill="black"/>
<path d="M110.94 536.6V557.048H112.124V562.84H110.044V559H96.444V562.84H94.3V557.048H95.228C96.892 557.048 97.884 555.672 97.884 550.936V536.6H110.94ZM98.684 557.048H108.764V538.552H100.06V550.904C100.06 553.816 99.516 555.768 98.684 557.048ZM122.549 559.384C117.941 559.384 115.061 555.96 115.061 551.704C115.061 547.48 117.941 544.056 122.549 544.056C127.189 544.056 130.069 547.48 130.069 551.704C130.069 555.96 127.189 559.384 122.549 559.384ZM122.549 557.496C125.973 557.496 128.021 554.936 128.021 551.704C128.021 548.472 125.973 545.912 122.549 545.912C119.157 545.912 117.109 548.472 117.109 551.736C117.109 554.936 119.157 557.496 122.549 557.496ZM140.624 559.384C135.664 559.384 133.04 555.704 133.04 549.752C133.04 541.496 135.824 536.6 143.824 536.6H146.768V538.584H143.568C137.648 538.584 135.28 542.296 135.12 548.184C136.176 545.336 138.512 544.056 141.2 544.056C145.52 544.056 148.176 547.576 148.176 551.64C148.176 555.896 145.328 559.384 140.624 559.384ZM140.656 557.528C144.112 557.528 146.128 554.872 146.128 551.736C146.128 548.568 144.112 545.912 140.656 545.912C137.296 545.912 135.248 548.504 135.248 551.736C135.248 554.968 137.296 557.528 140.656 557.528ZM157.889 559.384C153.281 559.384 150.593 556.056 150.593 551.736C150.593 547.416 153.409 544.056 157.921 544.056C160.609 544.056 162.689 545.464 163.617 547.608V544.44H165.633V559H163.617V555.864C162.689 557.944 160.481 559.384 157.889 559.384ZM158.113 557.528C161.665 557.528 163.713 554.84 163.713 551.736C163.713 548.568 161.665 545.912 158.113 545.912C154.753 545.912 152.641 548.408 152.641 551.736C152.641 555.032 154.753 557.528 158.113 557.528ZM170.748 559V544.44H177.788C180.924 544.44 182.076 546.392 182.076 548.184C182.076 549.816 180.796 551.256 178.94 551.512C180.828 551.576 182.268 553.144 182.268 555.096C182.268 556.856 180.956 559 177.692 559H170.748ZM172.764 550.808H177.692C179.036 550.808 179.996 549.624 179.996 548.344C179.996 547.032 179.004 545.944 177.628 545.944H172.764V550.808ZM177.756 552.312H172.764V557.464H177.724C179.1 557.464 180.188 556.312 180.188 554.968C180.188 553.592 179.132 552.312 177.756 552.312ZM197.153 559V547.992L188.577 557.912V559H186.529V544.44H188.577V555.512L197.153 545.56V544.44H199.201V559H197.153ZM202.806 544.44H214.358V546.36H209.59V559H207.542V546.36H202.806V544.44ZM217.935 559V544.44H219.983V549.912H224.239C227.055 549.912 228.975 551.928 228.975 554.456C228.975 556.952 226.927 559 224.175 559H217.935ZM224.079 551.608H219.983V557.304H223.983C225.711 557.304 226.831 556.024 226.831 554.456C226.831 552.888 225.743 551.608 224.079 551.608ZM96.22 573.6H104.028C108.316 573.6 111.388 576.8 111.388 581.216C111.388 585.664 108.284 588.864 104.028 588.864H98.364V596H96.22V573.6ZM98.364 586.912H103.9C107.004 586.912 109.244 584.512 109.244 581.216C109.244 577.952 107.004 575.552 103.9 575.552H98.364V586.912ZM127.169 587.808C127.169 588.32 127.137 588.672 127.105 589.184H115.329C115.329 592.48 117.313 594.56 120.449 594.56C122.657 594.56 124.257 593.536 124.897 591.904H126.977C126.401 594.56 123.777 596.384 120.449 596.384C116.065 596.384 113.249 593.344 113.249 588.704C113.249 584.064 116.097 581.056 120.321 581.056C124.417 581.056 127.169 583.872 127.169 587.808ZM115.329 587.552H125.153C125.121 584.672 123.329 582.72 120.321 582.72C117.409 582.72 115.521 584.704 115.329 587.552ZM142.937 581.44V594.048H144.121V599.84H142.073V596H131.065V599.84H128.921V594.048H130.329C131.289 593.632 131.865 592.352 131.865 589.856V581.44H142.937ZM132.793 594.24H140.889V583.168H133.913V589.76C133.913 591.808 133.465 593.248 132.793 594.24ZM154.295 596.384C149.687 596.384 146.999 593.056 146.999 588.736C146.999 584.416 149.815 581.056 154.327 581.056C157.015 581.056 159.095 582.464 160.023 584.608V581.44H162.039V596H160.023V592.864C159.095 594.944 156.887 596.384 154.295 596.384ZM154.519 594.528C158.071 594.528 160.119 591.84 160.119 588.736C160.119 585.568 158.071 582.912 154.519 582.912C151.159 582.912 149.047 585.408 149.047 588.736C149.047 592.032 151.159 594.528 154.519 594.528ZM171.666 588.576H171.506L178.898 596H176.274L169.202 588.896V596H167.154V581.44H169.202V588H169.97C170.738 588 171.378 587.616 172.114 586.432L174.29 583.264C175.186 581.92 175.794 581.28 177.202 581.28H178.386V583.136H177.65C176.69 583.136 176.338 583.616 175.698 584.544L174.226 586.752C173.362 588.096 172.754 588.576 171.666 588.576ZM180.806 581.44H192.358V583.36H187.59V596H185.542V583.36H180.806V581.44ZM206.559 596V584.992L197.983 594.912V596H195.935V581.44H197.983V592.512L206.559 582.56V581.44H208.607V596H206.559ZM221.62 581.056C225.812 581.056 228.756 584.224 228.756 588.736C228.756 593.184 225.716 596.384 221.492 596.384C218.932 596.384 216.724 595.008 215.764 592.864V602.88H213.716V581.44H215.764V584.608C216.724 582.4 218.964 581.056 221.62 581.056ZM221.268 594.528C224.436 594.528 226.708 592.096 226.708 588.736C226.708 585.344 224.436 582.912 221.268 582.912C217.972 582.912 215.668 585.344 215.668 588.736C215.668 592.096 218.004 594.528 221.268 594.528ZM238.799 596.384C234.191 596.384 231.311 592.96 231.311 588.704C231.311 584.48 234.191 581.056 238.799 581.056C243.439 581.056 246.319 584.48 246.319 588.704C246.319 592.96 243.439 596.384 238.799 596.384ZM238.799 594.496C242.223 594.496 244.271 591.936 244.271 588.704C244.271 585.472 242.223 582.912 238.799 582.912C235.407 582.912 233.359 585.472 233.359 588.736C233.359 591.936 235.407 594.496 238.799 594.496ZM250.154 596V581.44H257.194C260.33 581.44 261.482 583.392 261.482 585.184C261.482 586.816 260.202 588.256 258.346 588.512C260.234 588.576 261.674 590.144 261.674 592.096C261.674 593.856 260.362 596 257.098 596H250.154ZM252.17 587.808H257.098C258.442 587.808 259.402 586.624 259.402 585.344C259.402 584.032 258.41 582.944 257.034 582.944H252.17V587.808ZM257.162 589.312H252.17V594.464H257.13C258.506 594.464 259.594 593.312 259.594 591.968C259.594 590.592 258.538 589.312 257.162 589.312ZM271.951 596.384C267.343 596.384 264.655 593.056 264.655 588.736C264.655 584.416 267.471 581.056 271.983 581.056C274.671 581.056 276.751 582.464 277.679 584.608V581.44H279.695V596H277.679V592.864C276.751 594.944 274.543 596.384 271.951 596.384ZM272.175 594.528C275.727 594.528 277.775 591.84 277.775 588.736C277.775 585.568 275.727 582.912 272.175 582.912C268.815 582.912 266.703 585.408 266.703 588.736C266.703 592.032 268.815 594.528 272.175 594.528ZM283.306 581.44H294.858V583.36H290.09V596H288.042V583.36H283.306V581.44ZM298.435 596V581.44H300.483V586.912H304.739C307.555 586.912 309.475 588.928 309.475 591.456C309.475 593.952 307.427 596 304.675 596H298.435ZM304.579 588.608H300.483V594.304H304.483C306.211 594.304 307.331 593.024 307.331 591.456C307.331 589.888 306.243 588.608 304.579 588.608Z" fill="black"/>
<path d="M15.0299 1233H12.9819V1218.44H15.0299V1224.81H23.6379V1218.44H25.6859V1233H23.6379V1226.57H15.0299V1233ZM36.8104 1233.38C32.2024 1233.38 29.5144 1230.06 29.5144 1225.74C29.5144 1221.42 32.3304 1218.06 36.8424 1218.06C39.5304 1218.06 41.6104 1219.46 42.5384 1221.61V1218.44H44.5544V1233H42.5384V1229.86C41.6104 1231.94 39.4024 1233.38 36.8104 1233.38ZM37.0344 1231.53C40.5864 1231.53 42.6344 1228.84 42.6344 1225.74C42.6344 1222.57 40.5864 1219.91 37.0344 1219.91C33.6744 1219.91 31.5624 1222.41 31.5624 1225.74C31.5624 1229.03 33.6744 1231.53 37.0344 1231.53ZM55.6214 1233.38C51.2054 1233.38 48.3894 1230.25 48.3894 1225.74C48.3894 1221.22 51.2054 1218.09 55.6214 1218.09C59.4614 1218.09 61.9574 1220.17 62.3414 1223.37H60.2614C59.8774 1221.13 58.1814 1219.94 55.6214 1219.94C52.4214 1219.94 50.4374 1222.18 50.4374 1225.74C50.4374 1229.26 52.4214 1231.53 55.6214 1231.53C58.1814 1231.53 59.8774 1230.31 60.2614 1228.17H62.3414C61.9574 1231.3 59.4614 1233.38 55.6214 1233.38ZM63.6966 1218.44H75.2486V1220.36H70.4806V1233H68.4326V1220.36H63.6966V1218.44ZM86.7296 1218.06C90.9216 1218.06 93.8656 1221.22 93.8656 1225.74C93.8656 1230.18 90.8256 1233.38 86.6016 1233.38C84.0416 1233.38 81.8336 1232.01 80.8736 1229.86V1239.88H78.8256V1218.44H80.8736V1221.61C81.8336 1219.4 84.0736 1218.06 86.7296 1218.06ZM86.3776 1231.53C89.5456 1231.53 91.8176 1229.1 91.8176 1225.74C91.8176 1222.34 89.5456 1219.91 86.3776 1219.91C83.0816 1219.91 80.7776 1222.34 80.7776 1225.74C80.7776 1229.1 83.1136 1231.53 86.3776 1231.53ZM103.909 1233.38C99.3006 1233.38 96.4206 1229.96 96.4206 1225.7C96.4206 1221.48 99.3006 1218.06 103.909 1218.06C108.549 1218.06 111.429 1221.48 111.429 1225.7C111.429 1229.96 108.549 1233.38 103.909 1233.38ZM103.909 1231.5C107.333 1231.5 109.381 1228.94 109.381 1225.7C109.381 1222.47 107.333 1219.91 103.909 1219.91C100.517 1219.91 98.4686 1222.47 98.4686 1225.74C98.4686 1228.94 100.517 1231.5 103.909 1231.5ZM121.567 1217.06C118.623 1217.06 116.447 1215.46 116.223 1212.68H118.015C118.175 1214.54 119.679 1215.5 121.567 1215.5C123.423 1215.5 124.959 1214.54 125.119 1212.68H126.879C126.655 1215.46 124.479 1217.06 121.567 1217.06ZM125.887 1233V1221.99L117.311 1231.91V1233H115.263V1218.44H117.311V1229.51L125.887 1219.56V1218.44H127.935V1233H125.887ZM137.556 1225.58H137.396L144.788 1233H142.164L135.092 1225.9V1233H133.044V1218.44H135.092V1225H135.86C136.628 1225 137.268 1224.62 138.004 1223.43L140.18 1220.26C141.076 1218.92 141.684 1218.28 143.092 1218.28H144.276V1220.14H143.54C142.58 1220.14 142.228 1220.62 141.588 1221.54L140.116 1223.75C139.252 1225.1 138.644 1225.58 137.556 1225.58ZM158.981 1233V1221.99L150.405 1231.91V1233H148.357V1218.44H150.405V1229.51L158.981 1219.56V1218.44H161.029V1233H158.981Z" fill="black"/>
<path d="M442.188 1222.5C442.188 1222.2 442.175 1221.92 442.149 1221.62L444.552 1219.8C445.069 1219.41 445.211 1218.69 444.888 1218.12L442.472 1213.95C442.149 1213.38 441.452 1213.15 440.858 1213.41L438.081 1214.58C437.603 1214.25 437.099 1213.95 436.569 1213.7L436.195 1210.72C436.117 1210.07 435.562 1209.58 434.916 1209.58H430.098C429.439 1209.58 428.884 1210.07 428.807 1210.72L428.432 1213.7C427.902 1213.95 427.399 1214.25 426.921 1214.58L424.144 1213.41C423.549 1213.15 422.852 1213.38 422.529 1213.95L420.114 1218.13C419.791 1218.7 419.933 1219.41 420.449 1219.81L422.852 1221.63C422.826 1221.92 422.813 1222.2 422.813 1222.5C422.813 1222.8 422.826 1223.08 422.852 1223.38L420.449 1225.2C419.933 1225.59 419.791 1226.31 420.114 1226.88L422.529 1231.05C422.852 1231.62 423.549 1231.85 424.144 1231.59L426.921 1230.42C427.399 1230.75 427.902 1231.05 428.432 1231.3L428.807 1234.28C428.884 1234.93 429.439 1235.42 430.085 1235.42H434.903C435.549 1235.42 436.104 1234.93 436.182 1234.28L436.557 1231.3C437.086 1231.05 437.59 1230.75 438.068 1230.42L440.845 1231.59C441.439 1231.85 442.136 1231.62 442.459 1231.05L444.875 1226.88C445.198 1226.31 445.056 1225.6 444.539 1225.2L442.136 1223.38C442.175 1223.08 442.188 1222.8 442.188 1222.5ZM432.552 1227.02C430.059 1227.02 428.032 1224.99 428.032 1222.5C428.032 1220.01 430.059 1217.98 432.552 1217.98C435.045 1217.98 437.073 1220.01 437.073 1222.5C437.073 1224.99 435.045 1227.02 432.552 1227.02Z" fill="black"/>
<path d="M0 1H458V-1H0V1Z" fill="white" mask="url(#path-1-inside-1_52_693)"/>
</svg>
